<svg xmlns="http://www.w3.org/2000/svg" xmlns:xlink="http://www.w3.org/1999/xlink" width="500" zoomAndPan="magnify" viewBox="0 0 375 374.999991" height="500" preserveAspectRatio="xMidYMid meet" version="1.0"><defs><clipPath id="a7acb0a2f7"><path d="M 247 103 L 375 103 L 375 317.953125 L 247 317.953125 Z M 247 103 " clip-rule="nonzero"/></clipPath><clipPath id="91eeb83268"><path d="M 40 103 L 231 103 L 231 317.953125 L 40 317.953125 Z M 40 103 " clip-rule="nonzero"/></clipPath></defs><path fill="#cf7600" d="M 239.203125 57 L 218.921875 61.585938 L 326.066406 85.535156 L 239.597656 110.976562 L 130.757812 81.515625 L 106.332031 87.039062 L 239.203125 124.339844 L 372.859375 87.214844 L 239.203125 57 " fill-opacity="1" fill-rule="nonzero"/><g clip-path="url(#a7acb0a2f7)"><path fill="#cf7600" d="M 355.59375 109.347656 L 355.59375 232.320312 L 266.949219 276.347656 L 266.949219 133.976562 L 247.546875 139.367188 L 247.546875 318.078125 L 374.992188 244.496094 L 374.992188 103.957031 L 355.59375 109.347656 " fill-opacity="1" fill-rule="nonzero"/></g><g clip-path="url(#91eeb83268)"><path fill="#ff3131" d="M 103.40625 103.558594 L 103.40625 136.359375 L 118.226562 136.359375 C 122.523438 136.359375 126 139.839844 126 144.128906 C 126 148.421875 122.523438 151.902344 118.226562 151.902344 L 46.324219 151.902344 C 43.265625 151.902344 40.785156 154.382812 40.785156 157.441406 C 40.785156 160.5 43.265625 162.980469 46.324219 162.980469 L 149.074219 162.980469 C 153.367188 162.980469 156.847656 166.460938 156.847656 170.753906 C 156.847656 175.042969 153.367188 178.523438 149.074219 178.523438 L 80.308594 178.523438 C 77.246094 178.523438 74.765625 181.003906 74.765625 184.0625 C 74.765625 187.121094 77.246094 189.605469 80.308594 189.605469 L 133 189.605469 C 137.292969 189.605469 140.769531 193.082031 140.769531 197.375 C 140.769531 201.667969 137.292969 205.148438 133 205.148438 L 93.261719 205.148438 C 90.207031 205.148438 87.722656 207.628906 87.722656 210.683594 C 87.722656 213.746094 90.207031 216.226562 93.261719 216.226562 L 165.277344 216.226562 C 169.574219 216.226562 173.050781 219.707031 173.050781 223.996094 C 173.050781 228.289062 169.574219 231.769531 165.277344 231.769531 L 103.40625 231.769531 L 103.40625 244.496094 L 230.855469 318.078125 L 230.855469 139.34375 L 103.40625 103.558594 " fill-opacity="1" fill-rule="nonzero"/></g><path fill="#ff3131" d="M 78.949219 227.003906 L 33.464844 227.003906 C 30.503906 227.003906 28.105469 229.402344 28.105469 232.359375 C 28.105469 235.324219 30.503906 237.722656 33.464844 237.722656 L 78.949219 237.722656 C 81.910156 237.722656 84.308594 235.324219 84.308594 232.359375 C 84.308594 229.402344 81.910156 227.003906 78.949219 227.003906 Z M 56.207031 187.925781 C 56.207031 184.964844 53.808594 182.566406 50.847656 182.566406 L 5.367188 182.566406 C 2.40625 182.566406 0.0078125 184.964844 0.0078125 187.925781 C 0.0078125 190.882812 2.40625 193.28125 5.367188 193.28125 L 50.847656 193.28125 C 53.808594 193.28125 56.207031 190.882812 56.207031 187.925781 Z M 91.625 122.445312 L 46.144531 122.445312 C 43.183594 122.445312 40.785156 124.84375 40.785156 127.804688 C 40.785156 130.761719 43.183594 133.160156 46.144531 133.160156 L 91.625 133.160156 C 94.585938 133.160156 96.984375 130.761719 96.984375 127.804688 C 96.984375 124.84375 94.585938 122.445312 91.625 122.445312 " fill-opacity="1" fill-rule="nonzero"/></svg>