<svg xmlns="http://www.w3.org/2000/svg" xmlns:xlink="http://www.w3.org/1999/xlink" width="1080" zoomAndPan="magnify" viewBox="0 0 810 809.999993" height="1080" preserveAspectRatio="xMidYMid meet" version="1.0"><path fill="#3998ff" d="M 809.433594 403.539062 C 809.433594 410.140625 809.273438 416.734375 808.949219 423.328125 C 808.628906 429.921875 808.144531 436.503906 807.496094 443.074219 C 806.851562 449.640625 806.042969 456.191406 805.078125 462.722656 C 804.109375 469.25 802.980469 475.753906 801.695312 482.226562 C 800.40625 488.703125 798.960938 495.140625 797.359375 501.542969 C 795.753906 507.945312 793.996094 514.308594 792.082031 520.625 C 790.164062 526.941406 788.097656 533.207031 785.875 539.421875 C 783.652344 545.636719 781.277344 551.792969 778.75 557.894531 C 776.226562 563.992188 773.550781 570.027344 770.730469 575.992188 C 767.910156 581.960938 764.941406 587.855469 761.832031 593.675781 C 758.71875 599.5 755.46875 605.242188 752.074219 610.902344 C 748.683594 616.566406 745.152344 622.140625 741.484375 627.628906 C 737.820312 633.117188 734.019531 638.515625 730.089844 643.816406 C 726.15625 649.117188 722.097656 654.320312 717.910156 659.425781 C 713.722656 664.527344 709.414062 669.523438 704.980469 674.417969 C 700.546875 679.308594 696 684.085938 691.332031 688.753906 C 686.664062 693.421875 681.886719 697.972656 676.996094 702.40625 C 672.105469 706.839844 667.109375 711.152344 662.003906 715.339844 C 656.902344 719.527344 651.699219 723.589844 646.398438 727.519531 C 641.097656 731.453125 635.703125 735.253906 630.214844 738.921875 C 624.726562 742.589844 619.152344 746.121094 613.488281 749.515625 C 607.828125 752.90625 602.085938 756.160156 596.265625 759.273438 C 590.445312 762.386719 584.550781 765.351562 578.582031 768.175781 C 572.617188 770.996094 566.582031 773.671875 560.484375 776.199219 C 554.386719 778.726562 548.230469 781.101562 542.015625 783.324219 C 535.800781 785.550781 529.535156 787.621094 523.21875 789.535156 C 516.902344 791.453125 510.542969 793.214844 504.136719 794.816406 C 497.734375 796.421875 491.296875 797.867188 484.824219 799.15625 C 478.347656 800.445312 471.847656 801.574219 465.316406 802.542969 C 458.789062 803.511719 452.238281 804.320312 445.667969 804.964844 C 439.101562 805.613281 432.519531 806.097656 425.925781 806.421875 C 419.332031 806.746094 412.738281 806.910156 406.136719 806.910156 C 399.535156 806.910156 392.9375 806.75 386.34375 806.425781 C 379.75 806.101562 373.171875 805.617188 366.601562 804.96875 C 360.03125 804.324219 353.484375 803.515625 346.953125 802.546875 C 340.421875 801.578125 333.921875 800.449219 327.449219 799.164062 C 320.972656 797.875 314.535156 796.429688 308.132812 794.824219 C 301.726562 793.222656 295.367188 791.460938 289.050781 789.546875 C 282.734375 787.628906 276.46875 785.558594 270.253906 783.335938 C 264.039062 781.113281 257.882812 778.738281 251.78125 776.210938 C 245.683594 773.6875 239.652344 771.011719 233.683594 768.191406 C 227.71875 765.367188 221.824219 762.402344 216 759.289062 C 210.179688 756.179688 204.4375 752.925781 198.777344 749.53125 C 193.113281 746.136719 187.539062 742.609375 182.050781 738.941406 C 176.5625 735.273438 171.167969 731.472656 165.863281 727.542969 C 160.5625 723.609375 155.359375 719.550781 150.257812 715.363281 C 145.15625 711.175781 140.15625 706.863281 135.265625 702.429688 C 130.375 698 125.597656 693.449219 120.929688 688.78125 C 116.261719 684.113281 111.710938 679.332031 107.277344 674.441406 C 102.84375 669.550781 98.535156 664.554688 94.347656 659.453125 C 90.160156 654.347656 86.101562 649.148438 82.167969 643.84375 C 78.234375 638.542969 74.4375 633.148438 70.769531 627.660156 C 67.101562 622.171875 63.570312 616.59375 60.179688 610.933594 C 56.785156 605.273438 53.53125 599.53125 50.421875 593.707031 C 47.308594 587.886719 44.34375 581.992188 41.519531 576.023438 C 38.699219 570.058594 36.023438 564.023438 33.5 557.925781 C 30.972656 551.828125 28.597656 545.671875 26.375 539.457031 C 24.148438 533.242188 22.082031 526.972656 20.164062 520.65625 C 18.25 514.339844 16.488281 507.980469 14.886719 501.578125 C 13.28125 495.175781 11.835938 488.734375 10.546875 482.261719 C 9.261719 475.789062 8.132812 469.285156 7.164062 462.757812 C 6.195312 456.226562 5.390625 449.675781 4.742188 443.109375 C 4.09375 436.539062 3.609375 429.957031 3.285156 423.363281 C 2.964844 416.769531 2.800781 410.175781 2.800781 403.574219 C 2.800781 396.972656 2.964844 390.375 3.289062 383.78125 C 3.613281 377.191406 4.097656 370.609375 4.746094 364.039062 C 5.394531 357.46875 6.203125 350.921875 7.171875 344.390625 C 8.140625 337.863281 9.269531 331.359375 10.554688 324.886719 C 11.84375 318.414062 13.289062 311.972656 14.894531 305.570312 C 16.5 299.167969 18.261719 292.808594 20.175781 286.492188 C 22.09375 280.175781 24.164062 273.910156 26.386719 267.695312 C 28.613281 261.480469 30.988281 255.320312 33.515625 249.222656 C 36.039062 243.125 38.714844 237.09375 41.539062 231.125 C 44.359375 225.160156 47.328125 219.265625 50.441406 213.445312 C 53.550781 207.621094 56.804688 201.882812 60.199219 196.21875 C 63.59375 190.558594 67.125 184.984375 70.792969 179.496094 C 74.460938 174.007812 78.261719 168.613281 82.191406 163.308594 C 86.125 158.007812 90.1875 152.804688 94.375 147.703125 C 98.5625 142.601562 102.871094 137.605469 107.304688 132.714844 C 111.738281 127.824219 116.289062 123.046875 120.957031 118.378906 C 125.625 113.710938 130.40625 109.160156 135.296875 104.730469 C 140.1875 100.296875 145.1875 95.988281 150.289062 91.800781 C 155.390625 87.613281 160.59375 83.554688 165.898438 79.621094 C 171.199219 75.691406 176.59375 71.890625 182.085938 68.222656 C 187.574219 64.558594 193.148438 61.027344 198.8125 57.636719 C 204.472656 54.242188 210.214844 50.988281 216.035156 47.878906 C 221.859375 44.769531 227.753906 41.800781 233.722656 38.980469 C 239.6875 36.160156 245.722656 33.484375 251.820312 30.960938 C 257.917969 28.433594 264.078125 26.058594 270.292969 23.835938 C 276.507812 21.613281 282.773438 19.546875 289.089844 17.628906 C 295.40625 15.714844 301.765625 13.957031 308.171875 12.351562 C 314.574219 10.75 321.011719 9.304688 327.488281 8.015625 C 333.960938 6.730469 340.464844 5.601562 346.992188 4.636719 C 353.523438 3.667969 360.074219 2.859375 366.640625 2.214844 C 373.210938 1.570312 379.792969 1.082031 386.386719 0.761719 C 392.976562 0.4375 399.574219 0.277344 406.175781 0.277344 C 412.78125 0.253906 419.386719 0.394531 425.984375 0.695312 C 432.582031 0.996094 439.171875 1.460938 445.746094 2.085938 C 452.324219 2.714844 458.882812 3.503906 465.417969 4.453125 C 471.957031 5.402344 478.464844 6.511719 484.949219 7.785156 C 491.433594 9.054688 497.878906 10.484375 504.292969 12.074219 C 510.703125 13.664062 517.074219 15.410156 523.398438 17.3125 C 529.726562 19.21875 536 21.273438 542.226562 23.488281 C 548.449219 25.699219 554.617188 28.066406 560.722656 30.582031 C 566.832031 33.101562 572.875 35.765625 578.851562 38.582031 C 584.828125 41.394531 590.730469 44.355469 596.558594 47.464844 C 602.390625 50.570312 608.140625 53.816406 613.8125 57.207031 C 619.480469 60.597656 625.066406 64.125 630.5625 67.789062 C 636.058594 71.457031 641.460938 75.253906 646.769531 79.183594 C 652.078125 83.117188 657.285156 87.175781 662.394531 91.367188 C 667.503906 95.554688 672.503906 99.867188 677.402344 104.300781 C 682.296875 108.738281 687.082031 113.289062 691.75 117.960938 C 696.421875 122.632812 700.976562 127.417969 705.410156 132.3125 C 709.847656 137.207031 714.160156 142.210938 718.347656 147.320312 C 722.535156 152.429688 726.597656 157.636719 730.527344 162.945312 C 734.460938 168.253906 738.257812 173.65625 741.921875 179.152344 C 745.589844 184.648438 749.117188 190.234375 752.503906 195.902344 C 755.894531 201.574219 759.144531 207.324219 762.25 213.152344 C 765.355469 218.984375 768.316406 224.886719 771.132812 230.863281 C 773.945312 236.839844 776.613281 242.882812 779.128906 248.992188 C 781.648438 255.097656 784.011719 261.265625 786.222656 267.488281 C 788.4375 273.714844 790.496094 279.988281 792.398438 286.316406 C 794.300781 292.640625 796.046875 299.011719 797.636719 305.421875 C 799.226562 311.835938 800.65625 318.28125 801.929688 324.765625 C 803.199219 331.246094 804.308594 337.757812 805.257812 344.296875 C 806.210938 350.832031 807 357.390625 807.625 363.964844 C 808.25 370.542969 808.714844 377.128906 809.015625 383.730469 C 809.320312 390.328125 809.457031 396.933594 809.433594 403.539062 Z M 809.433594 403.539062 " fill-opacity="1" fill-rule="nonzero"/><path fill="#ff8a00" d="M 717.261719 660.296875 C 712.5 666.066406 707.582031 671.699219 702.507812 677.191406 C 697.429688 682.6875 692.207031 688.039062 686.835938 693.242188 C 681.464844 698.449219 675.949219 703.5 670.296875 708.398438 C 664.644531 713.296875 658.859375 718.035156 652.941406 722.609375 C 647.023438 727.1875 640.984375 731.597656 634.824219 735.835938 C 628.660156 740.078125 622.386719 744.144531 615.996094 748.035156 C 609.609375 751.925781 603.117188 755.636719 596.523438 759.167969 C 589.925781 762.695312 583.238281 766.042969 576.457031 769.199219 C 569.675781 772.359375 562.8125 775.324219 555.867188 778.101562 C 548.921875 780.878906 541.902344 783.457031 534.8125 785.84375 C 527.722656 788.230469 520.574219 790.417969 513.363281 792.40625 C 506.152344 794.394531 498.890625 796.179688 491.582031 797.765625 C 484.269531 799.347656 476.921875 800.730469 469.535156 801.902344 C 462.144531 803.078125 454.730469 804.046875 447.289062 804.8125 C 439.847656 805.574219 432.390625 806.128906 424.921875 806.476562 C 417.449219 806.824219 409.972656 806.964844 402.492188 806.898438 C 395.011719 806.832031 387.539062 806.554688 380.074219 806.070312 C 372.609375 805.585938 365.164062 804.898438 357.738281 804 C 350.3125 803.101562 342.917969 802 335.550781 800.6875 C 328.1875 799.378906 320.863281 797.867188 313.582031 796.152344 C 306.304688 794.433594 299.074219 792.515625 291.902344 790.398438 C 284.726562 788.277344 277.617188 785.960938 270.574219 783.449219 C 263.527344 780.933594 256.558594 778.226562 249.664062 775.324219 C 242.769531 772.421875 235.960938 769.332031 229.238281 766.050781 C 222.515625 762.769531 215.890625 759.304688 209.359375 755.65625 C 202.828125 752.007812 196.40625 748.179688 190.089844 744.171875 C 183.773438 740.164062 177.574219 735.988281 171.488281 731.636719 C 165.402344 727.285156 159.445312 722.765625 153.613281 718.082031 C 147.777344 713.398438 142.082031 708.558594 136.515625 703.558594 C 130.953125 698.558594 125.53125 693.40625 120.253906 688.105469 C 114.980469 682.804688 109.851562 677.359375 104.878906 671.773438 C 99.90625 666.1875 95.089844 660.464844 90.433594 654.613281 C 133.394531 593.351562 200 550.84375 340.039062 549.25 C 501.660156 547.304688 620.546875 541.40625 669.648438 595.738281 C 687.523438 615.777344 703.394531 637.296875 717.261719 660.296875 Z M 717.261719 660.296875 " fill-opacity="1" fill-rule="nonzero"/><path fill="#14213d" d="M 272.554688 301.839844 C 195.007812 273.789062 207.65625 171.5 218.65625 169.300781 C 229.660156 167.101562 253.289062 185.246094 254.398438 185.796875 C 255.507812 186.347656 248.90625 140.152344 263.757812 118.703125 C 278.609375 97.257812 335.25 140.703125 378.699219 141.253906 C 422.144531 141.800781 527.1875 144.550781 557.980469 172.050781 C 588.773438 199.546875 572.789062 258.394531 572.789062 258.394531 C 572.789062 258.394531 608.027344 267.742188 600.863281 317.242188 C 593.699219 366.738281 538.167969 409.246094 518.367188 444.910156 C 498.570312 480.574219 380.972656 487.179688 362.730469 435.480469 " fill-opacity="1" fill-rule="nonzero"/><path fill="#ffb5a6" d="M 400.28125 608.855469 C 343.90625 608.855469 335.609375 561.800781 335.382812 553.847656 C 335.382812 552.9375 335.269531 551.34375 335.382812 549.183594 C 335.269531 544.753906 335.269531 537.933594 335.269531 529.976562 C 335.496094 508.496094 335.722656 478.835938 335.382812 466.101562 L 443.015625 427.570312 L 462.566406 420.523438 L 484.277344 412.792969 C 484.277344 412.792969 484.164062 417 483.933594 423.933594 C 483.820312 427.914062 483.707031 432.800781 483.59375 438.367188 C 483.609375 439.019531 483.570312 439.667969 483.480469 440.316406 C 483.367188 448.375 483.253906 457.589844 483.027344 467.25 C 482.683594 497.597656 482.570312 531.695312 484.164062 543.96875 C 487.105469 567.828125 456.644531 608.855469 400.28125 608.855469 Z M 400.28125 608.855469 " fill-opacity="1" fill-rule="nonzero"/><path fill="#e86b70" d="M 484.375 438.597656 C 484.121094 439.1875 483.816406 439.757812 483.46875 440.300781 C 445.277344 518.839844 387.882812 549.984375 335.371094 549.183594 C 335.257812 544.753906 335.257812 537.933594 335.257812 529.976562 C 335.484375 508.496094 335.710938 478.835938 335.371094 466.101562 L 443.003906 427.570312 L 483.585938 438.371094 Z M 484.375 438.597656 " fill-opacity="1" fill-rule="nonzero"/><path fill="#ffb5a6" d="M 270.417969 231.996094 C 333.113281 307.15625 487.957031 293.59375 487.957031 293.59375 C 487.957031 293.59375 490.890625 381.585938 506.289062 380.851562 C 521.6875 380.117188 524.253906 331.355469 562.019531 339.4375 C 599.78125 347.515625 576.316406 420.464844 546.988281 424.492188 C 517.65625 428.519531 510.320312 403.589844 510.320312 403.589844 C 510.320312 403.589844 456.242188 510.835938 370.449219 510.835938 C 284.652344 510.835938 262.691406 428.585938 263.207031 383.785156 C 263.71875 338.984375 270.417969 231.996094 270.417969 231.996094 Z M 270.417969 231.996094 " fill-opacity="1" fill-rule="nonzero"/></svg>